<?xml version="1.0" encoding="utf-8"?>
<!-- Generator: Adobe Illustrator 21.1.0, SVG Export Plug-In . SVG Version: 6.00 Build 0)  -->
<svg version="1.1" id="Layer_1" xmlns="http://www.w3.org/2000/svg" xmlns:xlink="http://www.w3.org/1999/xlink" x="0px" y="0px"
	 viewBox="0 0 144 144" style="enable-background:new 0 0 144 144;" xml:space="preserve">
<style type="text/css">
	.st0{fill:#231F20;}
</style>
<g>
	<path class="st0" d="M61.1,23.4c0-1.1,0.6-1.4,1.4-1.4h2.2c0.8,0,1.4,0.3,1.4,1.4v8.5h10v-8.5c0-1.1,0.6-1.4,1.4-1.4h2.1
		c0.8,0,1.4,0.3,1.4,1.4v21.7c0,1.1-0.6,1.4-1.4,1.4h-2.1c-0.8,0-1.4-0.3-1.4-1.4v-8.8H66v8.8c0,1.1-0.6,1.4-1.4,1.4h-2.2
		c-0.8,0-1.4-0.3-1.4-1.4V23.4z"/>
	<path class="st0" d="M101.8,23.4c0-1.1,0.6-1.4,1.4-1.4h12.7c1.1,0,1.4,0.6,1.4,1.4V25c0,0.8-0.3,1.4-1.4,1.4h-9.2v5.6h8.9
		c1.1,0,1.4,0.6,1.4,1.4v1.6c0,0.8-0.3,1.4-1.4,1.4h-8.9v5.8h9.2c1.1,0,1.4,0.6,1.4,1.4v1.6c0,0.8-0.3,1.4-1.4,1.4h-12.7
		c-0.8,0-1.4-0.3-1.4-1.4V23.4z"/>
	<path class="st0" d="M23.2,60.6c0-1.1,0.6-1.4,1.4-1.4h7.3c5.2,0,7.9,2.6,7.9,6.6c0,2.7-1.5,4.2-3.3,5V71c2.2,0.5,4.1,2.5,4.1,5.5
		c0,4.5-3.4,7.1-8.5,7.1h-7.5c-0.8,0-1.4-0.3-1.4-1.4V60.6z M31,69.3c2.3,0,3.8-1,3.8-3c0-2-1.4-2.9-3.4-2.9h-3.4v5.9H31z
		 M31.2,79.5c3,0,4.2-1.4,4.2-3.1c0-1.6-1-3.2-3.8-3.2h-3.6v6.2H31.2z"/>
	<path class="st0" d="M63.4,60.6c0-1.1,0.6-1.4,1.4-1.4h2.2c0.8,0,1.4,0.3,1.4,1.4v18.5h9.8c1.1,0,1.4,0.6,1.4,1.4v1.8
		c0,0.8-0.3,1.4-1.4,1.4H64.7c-0.8,0-1.4-0.3-1.4-1.4V60.6z"/>
	<path class="st0" d="M101.5,60.6c0-1.1,0.6-1.4,1.4-1.4h2.2c0.8,0,1.4,0.3,1.4,1.4v10.1h0l7-10.3c0.5-0.7,1.1-1.1,1.9-1.1h3.3
		c0.4,0,0.8,0.1,0.8,0.6c0,0.1-0.1,0.4-0.3,0.6L111.7,71l7.7,11.3c0.1,0.2,0.4,0.5,0.4,0.8c0,0.4-0.3,0.6-0.8,0.6h-3.6
		c-0.8,0-1.4-0.5-1.9-1.1l-7-10.8h0v10.6c0,1.1-0.6,1.4-1.4,1.4h-2.2c-0.8,0-1.4-0.3-1.4-1.4V60.6z"/>
	<path class="st0" d="M29.5,101.6h-5.7c-1.1,0-1.4-0.6-1.4-1.4v-1.6c0-0.8,0.3-1.4,1.4-1.4H40c1.1,0,1.4,0.6,1.4,1.4v1.6
		c0,0.8-0.3,1.4-1.4,1.4h-5.7v18.7c0,1.1-0.6,1.4-1.4,1.4h-2.2c-0.8,0-1.4-0.3-1.4-1.4V101.6z"/>
	<path class="st0" d="M29.5,26.4h-5.7c-1.1,0-1.4-0.6-1.4-1.4v-1.6c0-0.8,0.3-1.4,1.4-1.4H40c1.1,0,1.4,0.6,1.4,1.4V25
		c0,0.8-0.3,1.4-1.4,1.4h-5.7v18.7c0,1.1-0.6,1.4-1.4,1.4h-2.2c-0.8,0-1.4-0.3-1.4-1.4V26.4z"/>
	<path class="st0" d="M61.2,98.5c0-1.1,0.6-1.4,1.4-1.4h2.1c0.8,0,1.4,0.3,1.4,1.4v13c0,4.1,1.5,6.2,5,6.2c3.4,0,5.1-2.2,5.1-6.2
		v-13c0-1.1,0.6-1.4,1.4-1.4h2.1c0.8,0,1.4,0.3,1.4,1.4v12.9c0,7.6-4.6,10.6-9.9,10.6c-5.3,0-9.8-3-9.8-10.6V98.5z"/>
	<path class="st0" d="M107.4,109.3l-6.5-10.9c-0.5-0.8,0-1.2,0.6-1.2h3.4c0.8,0,1.3,0.5,1.6,1.2l3.8,7l3.8-7
		c0.4-0.8,0.8-1.2,1.7-1.2h3.3c0.6,0,1.1,0.4,0.6,1.2l-6.6,10.9l6.9,11.2c0.5,0.8,0,1.2-0.6,1.2h-3.6c-0.8,0-1.3-0.5-1.7-1.2l-3.9-7
		l-4,7c-0.4,0.7-0.9,1.2-1.7,1.2h-3.4c-0.6,0-1.1-0.4-0.6-1.1L107.4,109.3z"/>
	<path class="st0" d="M141.7,144H2.3C1,144,0,143,0,141.7V2.3C0,1,1,0,2.3,0h139.5c1.2,0,2.3,1,2.3,2.3v139.5
		C144,143,143,144,141.7,144z M5,139.1h134.1V4.9H5V139.1z"/>
</g>
</svg>
