<?xml version="1.0" encoding="UTF-8" standalone="no"?>
<!DOCTYPE svg PUBLIC "-//W3C//DTD SVG 1.1//EN"
 "http://www.w3.org/Graphics/SVG/1.1/DTD/svg11.dtd">
<!-- Generated by graphviz version 2.40.1 (20161225.0304)
 -->
<!-- Title: %3 Pages: 1 -->
<svg width="451pt" height="170pt"
 viewBox="0.00 0.00 451.37 170.00" xmlns="http://www.w3.org/2000/svg" xmlns:xlink="http://www.w3.org/1999/xlink">
<g id="graph0" class="graph" transform="scale(1 1) rotate(0) translate(4 166)">
<title>%3</title>
<polygon fill="#ffffff" stroke="transparent" points="-4,4 -4,-166 447.3711,-166 447.3711,4 -4,4"/>
<g id="clust1" class="cluster">
<title>cluster3</title>
<path fill="none" stroke="#000000" d="M20,-8C20,-8 210,-8 210,-8 216,-8 222,-14 222,-20 222,-20 222,-142 222,-142 222,-148 216,-154 210,-154 210,-154 20,-154 20,-154 14,-154 8,-148 8,-142 8,-142 8,-20 8,-20 8,-14 14,-8 20,-8"/>
<text text-anchor="middle" x="210.5" y="-14.8" font-family="Times,serif" font-size="14.00" fill="#000000">3</text>
</g>
<!-- theta -->
<g id="node1" class="node">
<title>theta</title>
<ellipse fill="none" stroke="#000000" cx="130" cy="-128" rx="67.861" ry="18"/>
<text text-anchor="middle" x="130" y="-123.8" font-family="Times,serif" font-size="14.00" fill="#000000">theta ~ Dirichlet</text>
</g>
<!-- likelihood -->
<g id="node2" class="node">
<title>likelihood</title>
<ellipse fill="#d3d3d3" stroke="#000000" cx="115" cy="-56" rx="99.2844" ry="18"/>
<text text-anchor="middle" x="115" y="-51.8" font-family="Times,serif" font-size="14.00" fill="#000000">likelihood ~ Multinomial</text>
</g>
<!-- theta&#45;&gt;likelihood -->
<g id="edge2" class="edge">
<title>theta&#45;&gt;likelihood</title>
<path fill="none" stroke="#000000" d="M126.2149,-109.8314C124.6106,-102.131 122.703,-92.9743 120.9201,-84.4166"/>
<polygon fill="#000000" stroke="#000000" points="124.3021,-83.4892 118.8361,-74.4133 117.4493,-84.9169 124.3021,-83.4892"/>
</g>
<!-- bush_dukakis_diff -->
<g id="node3" class="node">
<title>bush_dukakis_diff</title>
<polygon fill="none" stroke="#000000" points="443.2423,-74 232.7577,-74 232.7577,-38 443.2423,-38 443.2423,-74"/>
<text text-anchor="middle" x="338" y="-51.8" font-family="Times,serif" font-size="14.00" fill="#000000">bush_dukakis_diff ~ Deterministic</text>
</g>
<!-- theta&#45;&gt;bush_dukakis_diff -->
<g id="edge1" class="edge">
<title>theta&#45;&gt;bush_dukakis_diff</title>
<path fill="none" stroke="#000000" d="M171.592,-113.6028C201.4811,-103.2566 242.2832,-89.1327 276.0039,-77.4602"/>
<polygon fill="#000000" stroke="#000000" points="277.4606,-80.6598 285.7656,-74.0811 275.1708,-74.0449 277.4606,-80.6598"/>
</g>
</g>
</svg>
