<?xml version="1.0" encoding="UTF-8" standalone="no"?>
<!DOCTYPE svg PUBLIC "-//W3C//DTD SVG 1.1//EN"
 "http://www.w3.org/Graphics/SVG/1.1/DTD/svg11.dtd">
<!-- Generated by graphviz version 2.40.1 (20161225.0304)
 -->
<!-- Title: %3 Pages: 1 -->
<svg width="368pt" height="170pt"
 viewBox="0.00 0.00 368.33 170.00" xmlns="http://www.w3.org/2000/svg" xmlns:xlink="http://www.w3.org/1999/xlink">
<g id="graph0" class="graph" transform="scale(1 1) rotate(0) translate(4 166)">
<title>%3</title>
<polygon fill="#ffffff" stroke="transparent" points="-4,4 -4,-166 364.332,-166 364.332,4 -4,4"/>
<g id="clust1" class="cluster">
<title>cluster6</title>
<path fill="none" stroke="#000000" d="M20,-8C20,-8 186,-8 186,-8 192,-8 198,-14 198,-20 198,-20 198,-142 198,-142 198,-148 192,-154 186,-154 186,-154 20,-154 20,-154 14,-154 8,-148 8,-142 8,-142 8,-20 8,-20 8,-14 14,-8 20,-8"/>
<text text-anchor="middle" x="186.5" y="-14.8" font-family="Times,serif" font-size="14.00" fill="#000000">6</text>
</g>
<!-- results -->
<g id="node1" class="node">
<title>results</title>
<ellipse fill="#d3d3d3" stroke="#000000" cx="103" cy="-56" rx="86.7386" ry="18"/>
<text text-anchor="middle" x="103" y="-51.8" font-family="Times,serif" font-size="14.00" fill="#000000">results ~ Multinomial</text>
</g>
<!-- theta -->
<g id="node2" class="node">
<title>theta</title>
<ellipse fill="none" stroke="#000000" cx="112" cy="-128" rx="67.861" ry="18"/>
<text text-anchor="middle" x="112" y="-123.8" font-family="Times,serif" font-size="14.00" fill="#000000">theta ~ Dirichlet</text>
</g>
<!-- theta&#45;&gt;results -->
<g id="edge2" class="edge">
<title>theta&#45;&gt;results</title>
<path fill="none" stroke="#000000" d="M109.7289,-109.8314C108.7664,-102.131 107.6218,-92.9743 106.5521,-84.4166"/>
<polygon fill="#000000" stroke="#000000" points="110.0151,-83.9019 105.3017,-74.4133 103.0691,-84.7702 110.0151,-83.9019"/>
</g>
<!-- six_bias -->
<g id="node3" class="node">
<title>six_bias</title>
<polygon fill="none" stroke="#000000" points="360.1644,-74 207.8356,-74 207.8356,-38 360.1644,-38 360.1644,-74"/>
<text text-anchor="middle" x="284" y="-51.8" font-family="Times,serif" font-size="14.00" fill="#000000">six_bias ~ Deterministic</text>
</g>
<!-- theta&#45;&gt;six_bias -->
<g id="edge1" class="edge">
<title>theta&#45;&gt;six_bias</title>
<path fill="none" stroke="#000000" d="M148.4768,-112.7307C172.6466,-102.6131 204.733,-89.1815 231.6175,-77.9275"/>
<polygon fill="#000000" stroke="#000000" points="233.0155,-81.1367 240.8885,-74.0467 230.3125,-74.6796 233.0155,-81.1367"/>
</g>
</g>
</svg>
