<?xml version="1.0" encoding="UTF-8" standalone="no"?>
<!DOCTYPE svg PUBLIC "-//W3C//DTD SVG 1.1//EN"
 "http://www.w3.org/Graphics/SVG/1.1/DTD/svg11.dtd">
<!-- Generated by graphviz version 2.40.1 (20161225.0304)
 -->
<!-- Title: %3 Pages: 1 -->
<svg width="422pt" height="206pt"
 viewBox="0.00 0.00 422.00 206.00" xmlns="http://www.w3.org/2000/svg" xmlns:xlink="http://www.w3.org/1999/xlink">
<g id="graph0" class="graph" transform="scale(1 1) rotate(0) translate(4 202)">
<title>%3</title>
<polygon fill="#ffffff" stroke="transparent" points="-4,4 -4,-202 418,-202 418,4 -4,4"/>
<g id="clust1" class="cluster">
<title>cluster2 x 3</title>
<path fill="none" stroke="#000000" d="M20,-44C20,-44 208,-44 208,-44 214,-44 220,-50 220,-56 220,-56 220,-178 220,-178 220,-184 214,-190 208,-190 208,-190 20,-190 20,-190 14,-190 8,-184 8,-178 8,-178 8,-56 8,-56 8,-50 14,-44 20,-44"/>
<text text-anchor="middle" x="198" y="-50.8" font-family="Times,serif" font-size="14.00" fill="#000000">2 x 3</text>
</g>
<g id="clust2" class="cluster">
<title>cluster2</title>
<path fill="none" stroke="#000000" d="M240,-44C240,-44 394,-44 394,-44 400,-44 406,-50 406,-56 406,-56 406,-106 406,-106 406,-112 400,-118 394,-118 394,-118 240,-118 240,-118 234,-118 228,-112 228,-106 228,-106 228,-56 228,-56 228,-50 234,-44 240,-44"/>
<text text-anchor="middle" x="394.5" y="-50.8" font-family="Times,serif" font-size="14.00" fill="#000000">2</text>
</g>
<!-- theta -->
<g id="node1" class="node">
<title>theta</title>
<ellipse fill="none" stroke="#000000" cx="129" cy="-164" rx="67.861" ry="18"/>
<text text-anchor="middle" x="129" y="-159.8" font-family="Times,serif" font-size="14.00" fill="#000000">theta ~ Dirichlet</text>
</g>
<!-- responses -->
<g id="node2" class="node">
<title>responses</title>
<ellipse fill="#d3d3d3" stroke="#000000" cx="114" cy="-92" rx="97.8308" ry="18"/>
<text text-anchor="middle" x="114" y="-87.8" font-family="Times,serif" font-size="14.00" fill="#000000">responses ~ Multinomial</text>
</g>
<!-- theta&#45;&gt;responses -->
<g id="edge3" class="edge">
<title>theta&#45;&gt;responses</title>
<path fill="none" stroke="#000000" d="M125.2149,-145.8314C123.6106,-138.131 121.703,-128.9743 119.9201,-120.4166"/>
<polygon fill="#000000" stroke="#000000" points="123.3021,-119.4892 117.8361,-110.4133 116.4493,-120.9169 123.3021,-119.4892"/>
</g>
<!-- bush_pref -->
<g id="node3" class="node">
<title>bush_pref</title>
<polygon fill="none" stroke="#000000" points="398.2609,-110 235.7391,-110 235.7391,-74 398.2609,-74 398.2609,-110"/>
<text text-anchor="middle" x="317" y="-87.8" font-family="Times,serif" font-size="14.00" fill="#000000">bush_pref ~ Deterministic</text>
</g>
<!-- theta&#45;&gt;bush_pref -->
<g id="edge1" class="edge">
<title>theta&#45;&gt;bush_pref</title>
<path fill="none" stroke="#000000" d="M167.9537,-149.0816C194.642,-138.8605 230.4709,-125.1388 260.3113,-113.7106"/>
<polygon fill="#000000" stroke="#000000" points="261.6833,-116.9331 269.7701,-110.088 259.1798,-110.3961 261.6833,-116.9331"/>
</g>
<!-- bush_shift -->
<g id="node4" class="node">
<title>bush_shift</title>
<polygon fill="none" stroke="#000000" points="399.6123,-36 234.3877,-36 234.3877,0 399.6123,0 399.6123,-36"/>
<text text-anchor="middle" x="317" y="-13.8" font-family="Times,serif" font-size="14.00" fill="#000000">bush_shift ~ Deterministic</text>
</g>
<!-- bush_pref&#45;&gt;bush_shift -->
<g id="edge2" class="edge">
<title>bush_pref&#45;&gt;bush_shift</title>
<path fill="none" stroke="#000000" d="M317,-73.7079C317,-65.4635 317,-55.5376 317,-46.3622"/>
<polygon fill="#000000" stroke="#000000" points="320.5001,-46.0817 317,-36.0817 313.5001,-46.0818 320.5001,-46.0817"/>
</g>
</g>
</svg>
